HIERARCHY
ROOT Hips
{
 OFFSET 0.000000 0.000000 0.000000
 CHANNELS 6 Xposition Yposition Zposition Yrotation Xrotation Zrotation
 JOINT Chest
 {
  OFFSET 0.000000 14.634200 -0.016200
  CHANNELS 3 Yrotation Xrotation Zrotation
  JOINT Chest2
  {
   OFFSET 0.000000 8.932900 0.033000
   CHANNELS 3 Yrotation Xrotation Zrotation
   JOINT Chest3
   {
    OFFSET 0.000000 8.892300 0.000000
    CHANNELS 3 Yrotation Xrotation Zrotation
    JOINT Chest4
    {
     OFFSET 0.000000 8.883200 0.000000
     CHANNELS 3 Yrotation Xrotation Zrotation
     JOINT Neck
     {
      OFFSET 0.000000 13.173600 0.000000
      CHANNELS 3 Yrotation Xrotation Zrotation
      JOINT Head
      {
       OFFSET 0.000000 8.324600 0.069800
       CHANNELS 3 Yrotation Xrotation Zrotation
       End Site
       {
        OFFSET 0.000000 15.692400 0.036900
       }
      }
     }
     JOINT RightCollar
     {
      OFFSET -2.619200 8.772200 0.000000
      CHANNELS 3 Yrotation Xrotation Zrotation
      JOINT RightShoulder
      {
       OFFSET -12.922000 0.000000 0.000000
       CHANNELS 3 Yrotation Xrotation Zrotation
       JOINT RightElbow
       {
        OFFSET 0.000000 -27.880900 0.000000
        CHANNELS 3 Yrotation Xrotation Zrotation
        JOINT RightWrist
        {
         OFFSET 0.000000 -22.758700 0.008200
         CHANNELS 3 Yrotation Xrotation Zrotation
         End Site
         {
          OFFSET 0.000000 -16.965000 0.000000
         }
        }
       }
      }
     }
     JOINT LeftCollar
     {
      OFFSET 2.619200 8.772200 0.000000
      CHANNELS 3 Yrotation Xrotation Zrotation
      JOINT LeftShoulder
      {
       OFFSET 12.922000 0.000000 0.000000
       CHANNELS 3 Yrotation Xrotation Zrotation
       JOINT LeftElbow
       {
        OFFSET 0.000000 -27.880900 0.000000
        CHANNELS 3 Yrotation Xrotation Zrotation
        JOINT LeftWrist
        {
         OFFSET 0.000000 -22.758700 0.008200
         CHANNELS 3 Yrotation Xrotation Zrotation
         End Site
         {
          OFFSET 0.000000 -16.965000 0.000000
         }
        }
       }
      }
     }
    }
   }
  }
 }
 JOINT RightHip
 {
  OFFSET -12.026800 0.080100 0.008100
  CHANNELS 3 Yrotation Xrotation Zrotation
  JOINT RightKnee
  {
   OFFSET 0.000000 -42.600800 -0.000200
   CHANNELS 3 Yrotation Xrotation Zrotation
   JOINT RightAnkle
   {
    OFFSET 0.000000 -38.219300 0.054300
    CHANNELS 3 Yrotation Xrotation Zrotation
    JOINT RightToe
    {
     OFFSET 0.000000 -9.685800 15.804700
     CHANNELS 3 Yrotation Xrotation Zrotation
     End Site
     {
      OFFSET 0.000000 -1.422300 5.761700
     }
    }
   }
  }
 }
 JOINT LeftHip
 {
  OFFSET 12.026800 0.080100 0.008100
  CHANNELS 3 Yrotation Xrotation Zrotation
  JOINT LeftKnee
  {
   OFFSET 0.000000 -42.600800 -0.000200
   CHANNELS 3 Yrotation Xrotation Zrotation
   JOINT LeftAnkle
   {
    OFFSET 0.000000 -38.219300 0.054300
    CHANNELS 3 Yrotation Xrotation Zrotation
    JOINT LeftToe
    {
     OFFSET 0.000000 -9.685800 15.804700
     CHANNELS 3 Yrotation Xrotation Zrotation
     End Site
     {
      OFFSET 0.000000 -1.422300 5.761700
     }
    }
   }
  }
 }
}
MOTION
Frames: 8
Frame Time: 0.008333
0.000000 90.254400 0.000000 0.000000 -5.767877 0.000000 0.000000 11.653817 0.000000 0.000000 -5.885947 0.000000 0.000000 -0.000000 0.000000 0.000000 -0.000000 0.000000 0.000000 12.528835 0.000000 0.000000 0.711642 0.000000 0.000000 -0.000000 0.000000 0.000000 0.000000 -90.000000 0.000000 -2.309062 0.000000 0.000000 2.309062 0.000000 0.000000 -0.000000 0.000000 0.000000 -0.000000 90.000000 0.000000 -2.309062 0.000000 0.000000 2.309062 0.000000 0.000000 8.520406 0.000000 0.000000 1.905762 0.000000 -0.000000 -4.658285 0.000000 0.000000 -0.000000 0.000000 0.000000 8.520406 0.000000 0.000000 1.905762 0.000000 -0.000000 -4.658285 0.000000 0.000000 -0.000000 0.000000
-7.377213 151.934281 10.681048 168.439689 -16.578620 -1.403004 0.341136 16.368142 1.173310 0.035390 1.661885 0.164319 0.061785 2.777641 0.275255 0.481451 14.525798 1.501015 -0.116805 15.901658 -1.464256 0.213695 -9.048072 -1.509035 4.072707 -2.460884 0.206957 20.812621 -19.373759 -11.910487 49.035953 -50.813808 -23.432851 15.585750 5.570257 -35.931727 -7.974878 -0.719082 -1.291449 -2.638195 -22.109729 8.000352 -10.390131 -58.839757 -9.207031 -12.135957 11.462048 10.361077 -2.756254 -56.317292 15.536011 -34.737820 82.364893 -40.351902 -5.024266 -15.631226 7.636986 0.207262 -0.402469 0.127578 24.375169 -46.698453 -23.798552 47.210076 74.952729 63.380220 6.822782 -16.646186 -7.874520 0.322330 0.505054 0.195040
-8.106366 144.646615 12.606842 168.383349 -16.613270 -1.569326 0.447382 16.402835 1.361941 0.035288 1.662264 0.164591 0.061480 2.778399 0.275807 0.480245 14.527357 1.503551 -0.115729 15.900037 -1.464640 0.215079 -9.048182 -1.510491 4.077602 -2.457904 0.208204 20.809018 -19.373992 -11.916613 49.050513 -50.820458 -23.449100 15.587535 5.564774 -35.917551 -7.976540 -0.723261 -1.295074 -2.636732 -22.108430 8.003855 -10.384278 -58.844192 -9.208994 -12.136151 11.458383 10.364227 -2.990457 -56.307125 15.886908 -35.004144 82.389671 -40.616618 -4.953592 -15.779371 7.666743 0.125204 -0.267739 0.076675 24.230216 -46.731935 -23.520709 47.117582 74.950223 63.290809 6.935944 -16.438436 -7.823540 0.185993 0.321359 0.114129
-8.709035 138.644586 14.194089 168.355631 -16.634670 -1.704393 0.515832 16.425041 1.510887 0.035070 1.662529 0.164892 0.061252 2.778784 0.276082 0.474173 14.530905 1.505125 -0.110432 15.896482 -1.466013 0.213486 -9.049806 -1.508707 4.083484 -2.458057 0.207276 20.790646 -19.361422 -11.913193 49.092762 -50.839049 -23.482493 15.585550 5.567423 -35.910963 -7.970050 -0.726002 -1.299171 -2.637795 -22.105860 8.006280 -10.381789 -58.853212 -9.204571 -12.135176 11.458238 10.360858 -3.192909 -56.305369 16.164342 -35.233696 82.411073 -40.845429 -4.903563 -15.899706 7.687306 0.066703 -0.159399 0.040852 24.101747 -46.762589 -23.304496 47.038048 74.949719 63.215180 7.012979 -16.278203 -7.787052 0.090347 0.176564 0.055412
-9.145670 134.309456 15.341451 168.349417 -16.644713 -1.801607 0.549828 16.436656 1.616953 0.034556 1.662740 0.164610 0.057781 2.783238 0.277102 0.476809 14.524604 1.500747 -0.108307 15.899668 -1.462904 0.215712 -9.052172 -1.510183 4.084057 -2.456692 0.207783 20.782912 -19.354489 -11.907241 49.113578 -50.851218 -23.498821 15.582901 5.573767 -35.914361 -7.973687 -0.721312 -1.295816 -2.629209 -22.102727 8.002803 -10.376320 -58.865470 -9.204555 -12.135099 11.461045 10.358385 -3.355271 -56.309506 16.364599 -35.403107 82.428546 -41.018182 -4.877645 -15.979673 7.696893 0.028197 -0.080787 0.017272 24.001217 -46.788704 -23.153432 46.986626 74.947015 63.163093 7.053593 -16.170856 -7.765315 0.035144 0.078780 0.021548
-9.425654 131.571134 16.066039 168.351680 -16.647568 -1.848768 0.556001 16.443508 1.665212 0.037847 1.661492 0.164250 0.056409 2.783678 0.278116 0.478183 14.528050 1.501079 -0.106127 15.896789 -1.461193 0.218697 -9.053620 -1.511465 4.087252 -2.455250 0.205064 20.778952 -19.353908 -11.906935 49.130529 -50.864746 -23.515913 15.580122 5.576502 -35.905564 -7.973587 -0.725110 -1.299420 -2.623197 -22.101036 8.006016 -10.365380 -58.874512 -9.215845 -12.136094 11.461929 10.354067 -3.439622 -56.314700 16.459782 -35.491262 82.437924 -41.109913 -4.867953 -16.013126 7.699869 0.016217 -0.048488 0.009935 23.947247 -46.801016 -23.081057 46.958256 74.947375 63.134572 7.072053 -16.127657 -7.760921 0.018659 0.036513 0.011437
-9.577695 130.065203 16.464690 168.350548 -16.650342 -1.881833 0.565950 16.446595 1.699907 0.032706 1.665050 0.167795 0.059823 2.781698 0.276906 0.472986 14.533962 1.505393 -0.099909 15.892155 -1.465412 0.223150 -9.055608 -1.513440 4.092231 -2.455368 0.196084 20.781833 -19.356774 -11.909464 49.136141 -50.872643 -23.525762 15.575965 5.580110 -35.893836 -7.971736 -0.725140 -1.304835 -2.612991 -22.105631 8.008285 -10.354973 -58.883379 -9.230117 -12.140494 11.453598 10.342156 -3.504925 -56.315242 16.529740 -35.532073 82.442780 -41.156620 -4.854170 -16.037200 7.700722 0.002982 -0.019026 0.001827 23.911326 -46.807614 -23.030785 46.941251 74.947306 63.120908 7.085016 -16.100411 -7.758845 0.002902 0.010114 0.001779
-9.651675 129.348095 16.653855 168.351597 -16.652727 -1.891697 0.566037 16.448675 1.711950 0.033323 1.667004 0.167149 0.059872 2.781016 0.276374 0.471995 14.533918 1.506686 -0.098051 15.894099 -1.465156 0.227602 -9.055576 -1.513544 4.096057 -2.450283 0.197406 20.781991 -19.356646 -11.917803 49.145165 -50.885123 -23.540389 15.571996 5.587699 -35.880811 -7.974175 -0.716892 -1.305777 -2.606387 -22.110867 8.011023 -10.350078 -58.892968 -9.240629 -12.138257 11.457240 10.341573 -3.525044 -56.314453 16.549754 -35.583117 82.438839 -41.209092 -4.845840 -16.032452 7.697636 0.002311 -0.012522 0.001416 23.894963 -46.804818 -23.013798 46.928207 74.943137 63.112298 7.094962 -16.093151 -7.766097 0.001723 0.004536 0.001056
